<svg width="280" height="204" viewBox="0 0 280 204" fill="none" xmlns="http://www.w3.org/2000/svg">
<path d="M19.4637 184.429C13.6303 184.429 9.18034 182.996 6.11367 180.129C3.04701 177.262 1.51367 173.212 1.51367 167.979C1.51367 162.579 3.01367 158.446 6.01367 155.579C9.01367 152.679 13.4803 151.229 19.4137 151.229C21.4137 151.229 23.197 151.379 24.7637 151.679C26.3303 151.979 27.8303 152.396 29.2637 152.929V161.129C26.397 159.862 23.3303 159.229 20.0637 159.229C17.0303 159.229 14.7803 159.929 13.3137 161.329C11.847 162.696 11.1137 164.912 11.1137 167.979C11.1137 170.979 11.8803 173.146 13.4137 174.479C14.9803 175.779 17.2303 176.429 20.1637 176.429C21.7637 176.429 23.3137 176.279 24.8137 175.979C26.347 175.679 27.8637 175.212 29.3637 174.579V182.829C27.9303 183.329 26.4137 183.712 24.8137 183.979C23.247 184.279 21.4637 184.429 19.4637 184.429ZM30.9082 183.929L43.2582 151.729H53.2082L65.5582 183.929H55.7582L53.0582 177.079H43.3582L40.7082 183.929H30.9082ZM44.6082 170.329H51.8082L48.2082 160.879L44.6082 170.329ZM69.0664 183.929V151.729H77.0664L89.2164 168.779V151.729H98.6164V183.929H90.5664L78.4664 166.929V183.929H69.0664ZM103.1 183.929V151.729H112.5V183.929H103.1ZM117.016 183.929V151.729H125.016L137.166 168.779V151.729H146.566V183.929H138.516L126.416 166.929V183.929H117.016ZM151.049 183.929V151.729H165.449C168.749 151.729 171.565 152.279 173.899 153.379C176.232 154.446 178.015 156.179 179.249 158.579C180.482 160.946 181.099 164.096 181.099 168.029C181.099 173.562 179.749 177.596 177.049 180.129C174.349 182.662 170.482 183.929 165.449 183.929H151.049ZM160.449 176.729H164.249C165.815 176.729 167.132 176.512 168.199 176.079C169.265 175.612 170.082 174.762 170.649 173.529C171.215 172.262 171.499 170.429 171.499 168.029C171.499 165.629 171.232 163.779 170.699 162.479C170.199 161.146 169.415 160.229 168.349 159.729C167.282 159.196 165.915 158.929 164.249 158.929H160.449V176.729ZM192.394 149.529L196.794 139.229H204.094L199.294 149.529H192.394ZM184.594 183.929V151.729H208.994V158.929H193.994V164.179H207.144V171.479H193.994V176.729H208.994V183.929H184.594Z" fill="white"/>
<path d="M225.933 154.362V185.929H221.367V154.362H211.309V150.846H236.064L235.479 154.362H225.933ZM258.062 185.929L254.79 186.198L254.18 183.048C253.545 183.667 252.788 184.22 251.909 184.708C251.16 185.131 250.249 185.514 249.175 185.856C248.117 186.198 246.896 186.368 245.513 186.368C242.681 186.368 240.605 185.473 239.287 183.683C237.985 181.876 237.334 179.06 237.334 175.236V160.758H241.826V175.065C241.826 176.481 241.899 177.693 242.046 178.702C242.209 179.695 242.469 180.509 242.827 181.144C243.201 181.762 243.69 182.218 244.292 182.511C244.91 182.804 245.667 182.95 246.562 182.95C247.588 182.95 248.524 182.837 249.37 182.609C250.233 182.365 250.973 182.096 251.592 181.803C252.324 181.461 252.975 181.071 253.545 180.631V160.758H258.062V185.929ZM276.519 160.465C276.844 160.465 277.161 160.498 277.471 160.563C277.78 160.612 278.057 160.669 278.301 160.734C278.594 160.815 278.862 160.905 279.106 161.002L278.569 164.493C278.504 164.445 278.39 164.388 278.228 164.323C278.097 164.29 277.91 164.257 277.666 164.225C277.422 164.176 277.104 164.152 276.714 164.152C275.786 164.152 274.932 164.274 274.15 164.518C273.369 164.762 272.694 165.022 272.124 165.299C271.457 165.625 270.846 165.999 270.293 166.422V185.929H265.776V160.709L268.926 160.465L269.78 163.541C270.724 162.565 271.774 161.808 272.93 161.271C274.085 160.734 275.282 160.465 276.519 160.465Z" fill="white"/>
<path d="M50.7854 102.893L77.5938 48.8502L94.964 68.0682L78.9349 121.787L50.7854 102.893Z" stroke="white" stroke-width="9"/>
<path d="M171.046 122.026L163.077 67.0859L185.805 62.9874L204.184 104.873L171.046 122.026ZM153.836 66.0694L161.804 121.005L128.5 104.162V49.303L153.836 66.0694ZM119.5 49.594V104.177L86.9206 120.845L96.1264 66.0286L119.5 49.594Z" stroke="white" stroke-width="9"/>
<path d="M183.36 0.952058C167.889 0.425706 154.951 12.5128 154.424 27.9838C153.71 48.9717 180.64 80.9058 180.64 80.9058C180.64 80.9058 209.678 50.8758 210.392 29.8879C210.918 14.4169 198.831 1.47841 183.36 0.952058ZM182.068 38.9301C176.551 38.7424 172.226 34.1127 172.414 28.5958C172.602 23.079 177.231 18.754 182.748 18.9416C188.265 19.1293 192.59 23.7591 192.402 29.2759C192.215 34.7927 187.585 39.1178 182.068 38.9301Z" fill="white"/>
</svg>
